<?xml version="1.0" encoding="UTF-8" standalone="no"?>
<!-- Created with Inkscape (http://www.inkscape.org/) -->

<svg
   xmlns:dc="http://purl.org/dc/elements/1.1/"
   xmlns:cc="http://creativecommons.org/ns#"
   xmlns:rdf="http://www.w3.org/1999/02/22-rdf-syntax-ns#"
   xmlns:svg="http://www.w3.org/2000/svg"
   xmlns="http://www.w3.org/2000/svg"
   xmlns:xlink="http://www.w3.org/1999/xlink"
   xmlns:sodipodi="http://sodipodi.sourceforge.net/DTD/sodipodi-0.dtd"
   xmlns:inkscape="http://www.inkscape.org/namespaces/inkscape"
   id="svg2"
   version="1.1"
   inkscape:version="0.91 r13725"
   width="450"
   height="450"
   viewBox="0 0 450 450"
   sodipodi:docname="NeuSolLogo.svg">
  <metadata
     id="metadata8">
    <rdf:RDF>
      <cc:Work
         rdf:about="">
        <dc:format>image/svg+xml</dc:format>
        <dc:type
           rdf:resource="http://purl.org/dc/dcmitype/StillImage" />
      </cc:Work>
    </rdf:RDF>
  </metadata>
  <defs
     id="defs6" />
  <sodipodi:namedview
     pagecolor="#ffffff"
     bordercolor="#666666"
     borderopacity="1"
     objecttolerance="10"
     gridtolerance="10"
     guidetolerance="10"
     inkscape:pageopacity="0"
     inkscape:pageshadow="2"
     inkscape:window-width="1013"
     inkscape:window-height="748"
     id="namedview4"
     showgrid="false"
     inkscape:zoom="1.050338"
     inkscape:cx="225"
     inkscape:cy="225"
     inkscape:window-x="2250"
     inkscape:window-y="133"
     inkscape:window-maximized="0"
     inkscape:current-layer="svg2" />
  <image
     sodipodi:absref="/home/jdn/DATA/Work/Development/NEUSOL/public/img/NeuSolLogo.png"
     xlink:href="NeuSolLogo.png"
     y="1.9041495"
     x="1.9041481"
     id="image10"
     style="image-rendering:optimizeQuality"
     preserveAspectRatio="none"
     height="450"
     width="450" />
  <path
     style="fill:#000000"
     d="m 214.60415,447.55415 c -0.74844,-0.28821 -2.80039,-0.41091 -7.14472,-0.42717 -3.91353,-0.0147 -6.32139,-0.14415 -6.72808,-0.3618 -0.64718,-0.34635 -2.75499,-0.72246 -6.2272,-1.1112 -1.0725,-0.12006 -2.24488,-0.38289 -2.60528,-0.58407 -0.3604,-0.20115 -1.49832,-0.36576 -2.5287,-0.36576 -1.85295,0 -2.24927,-0.0767 -5.25628,-1.0179 -0.84715,-0.26517 -2.0014,-0.4821 -2.565,-0.4821 -0.56361,0 -1.15557,-0.13083 -1.31548,-0.29073 -0.1599,-0.1599 -0.95288,-0.37023 -1.76217,-0.46737 -0.80929,-0.0971 -1.70908,-0.30381 -1.99954,-0.45927 -0.29046,-0.15543 -0.88336,-0.28263 -1.31755,-0.28263 -0.4342,0 -1.08432,-0.15864 -1.44472,-0.35253 -0.36041,-0.19389 -1.12778,-0.45492 -1.70528,-0.58005 -0.5775,-0.12513 -1.59,-0.38205 -2.25,-0.57093 -0.66,-0.18885 -1.92575,-0.45849 -2.81277,-0.59919 -0.88702,-0.1407 -1.96702,-0.38493 -2.4,-0.54279 -0.43298,-0.15783 -1.66473,-0.51894 -2.73723,-0.8025 -1.0725,-0.28353 -3.0975,-0.97572 -4.5,-1.53822 -1.4025,-0.56247 -2.69047,-1.02066 -2.86216,-1.01823 -1.14457,0.0162 -9.66764,-3.22536 -10.63784,-4.04598 -0.64225,-0.54321 -4.82299,-2.24754 -5.54432,-2.2602 -0.33313,-0.006 -0.94318,-0.20358 -1.35568,-0.43938 -0.4125,-0.2358 -1.13078,-0.43353 -1.59618,-0.43938 -0.53427,-0.007 -1.36363,-0.44343 -2.25,-1.18485 -1.66174,-1.38996 -6.89994,-4.10283 -11.39246,-5.90016 -1.20375,-0.48159 -2.82215,-1.39629 -3.59645,-2.03265 -0.77429,-0.63639 -1.97628,-1.42428 -2.67109,-1.75086 -0.6948,-0.32661 -1.42168,-0.78468 -1.61528,-1.01796 -0.19361,-0.23328 -0.52082,-0.42414 -0.72714,-0.42414 -0.72702,0 -3.18569,-1.24845 -4.18276,-2.12388 -0.55494,-0.48723 -2.31085,-1.62318 -3.90202,-2.52429 -1.59117,-0.90111 -3.52834,-2.16681 -4.30483,-2.81265 -0.776485,-0.64587 -1.951792,-1.44762 -2.611792,-1.78167 -0.66,-0.33408 -1.9425,-1.24653 -2.85,-2.02767 -0.9075,-0.78114 -2.1225,-1.61469 -2.7,-1.85229 -0.5775,-0.23763 -1.455,-0.8112 -1.95,-1.27461 -0.495,-0.46341 -1.790028,-1.56492 -2.877843,-2.44776 -6.170436,-5.00781 -11.263968,-9.41043 -11.694192,-10.1079 -0.270483,-0.43851 -2.020908,-2.07978 -3.889833,-3.64728 -1.868925,-1.5675 -3.567945,-3.0525 -3.775602,-3.3 -0.207654,-0.2475 -1.026675,-1.15218 -1.820043,-2.01039 -0.793368,-0.85821 -1.914987,-2.18625 -2.492487,-2.95122 -0.5775,-0.76497 -2.000247,-2.35782 -3.161658,-3.53964 -1.161414,-1.18182 -2.957829,-3.28098 -3.992034,-4.66482 -1.034205,-1.38384 -2.485203,-3.01587 -3.224439,-3.62673 -0.792378,-0.65478 -1.878309,-2.04816 -2.645634,-3.39465 -0.715866,-1.25616 -2.094621,-3.31278 -3.063903,-4.57023 -0.969282,-1.25745 -2.273235,-3.04749 -2.897673,-3.97791 -0.624438,-0.93039 -1.7859,-2.4396 -2.581026,-3.35379 -0.795129,-0.91416 -1.73943,-2.20179 -2.098455,-2.86137 -0.359022,-0.65958 -1.403439,-2.41425 -2.320926,-3.89925 -0.917487,-1.485 -1.976163,-3.24 -2.352615,-3.9 -0.376449,-0.66 -1.56249,-2.64084 -2.635641,-4.4019 -1.073154,-1.76103 -2.106373,-3.65103 -2.296044,-4.2 -0.189671,-0.54894 -0.804048,-1.74483 -1.365282,-2.65749 -0.561233,-0.91263 -1.365351,-2.57574 -1.786929,-3.69579 -0.421577,-1.12002 -1.102625,-2.66829 -1.51344,-3.44061 -0.410814,-0.77232 -1.012792,-2.01171 -1.337728,-2.75421 -0.324936,-0.7425 -0.786806,-1.6875 -1.026377,-2.1 -1.265339,-2.17869 -4.097977,-9.10185 -4.104592,-10.03188 -0.0024,-0.33996 -0.609918,-1.81956 -1.35,-3.28797 -0.740082,-1.46842 -1.346436,-2.95342 -1.347452,-3.3 -0.001,-0.34658 -0.203517,-1.01683 -0.45,-1.48944 -0.246484,-0.47261 -0.448152,-1.09988 -0.448152,-1.39392 0,-0.29404 -0.404537,-1.52736 -0.898971,-2.74071 -0.494434,-1.21334 -0.899434,-2.51032 -0.9,-2.88217 -5.66e-4,-0.37185 -0.271029,-1.17985 -0.601029,-1.79556 -0.33,-0.6157 -0.6,-1.46572 -0.6,-1.88891 0,-0.42319 -0.161591,-0.93103 -0.359092,-1.12853 -0.1975,-0.1975 -0.451137,-1.06825 -0.563637,-1.935 -0.1125,-0.86675 -0.508985,-2.31841 -0.881077,-3.22591 -0.372093,-0.9075 -0.764641,-2.46 -0.872328,-3.45 -0.107687,-0.99 -0.3596112,-2.09488 -0.5598306,-2.45528 -0.2002194,-0.3604 -0.3640353,-1.12016 -0.3640353,-1.68836 0,-0.5682 -0.2025,-1.51774 -0.45,-2.11009 -0.2475,-0.59235 -0.4542936,-1.72259 -0.4595409,-2.51163 -0.00525,-0.78906 -0.2077476,-1.69669 -0.45,-2.01698 -0.2800428,-0.37025 -0.4443309,-1.29897 -0.4510896,-2.55 -0.00614,-1.13679 -0.1916712,-2.28436 -0.4393695,-2.71766 -0.2709486,-0.47398 -0.4326513,-1.63978 -0.4393695,-3.16766 -0.00725,-1.64734 -0.1509702,-2.60321 -0.4510896,-3 -0.2760507,-0.36497 -0.4479882,-1.31021 -0.4606305,-2.53234 -0.01142,-1.10401 -0.2061759,-2.27538 -0.4489104,-2.7 -0.331173,-0.57933 -0.4335771,-2.14952 -0.45,-6.9 -0.016423,-4.75048 -0.118827,-6.32067 -0.45,-6.9 -0.3495157,-0.61142 -0.4287388,-2.71793 -0.4287388,-11.4 0,-8.68208 0.079223,-10.78859 0.4287388,-11.4 0.3332979,-0.58304 0.4311052,-2.15636 0.4393694,-7.06766 0.00854,-5.07819 0.097045,-6.43191 0.4510897,-6.9 0.2760507,-0.36497 0.4479882,-1.31021 0.4606305,-2.53234 0.011421,-1.10401 0.2061759,-2.27538 0.4489104,-2.7 0.2672673,-0.46754 0.4363359,-1.65389 0.4489104,-3.15 0.013608,-1.61908 0.1634901,-2.58948 0.4606305,-2.98234 0.2914809,-0.38537 0.4404591,-1.30458 0.4404591,-2.71766 0,-1.41308 0.1489782,-2.33229 0.4404591,-2.71766 0.2610039,-0.34508 0.4443462,-1.26179 0.45,-2.25 0.00565,-0.98821 0.1889961,-1.90492 0.45,-2.25 0.2422524,-0.32029 0.4447524,-1.09293 0.45,-1.71698 0.00525,-0.62404 0.2120409,-1.61928 0.4595409,-2.21163 0.2474999,-0.59236 0.4499999,-1.60792 0.4499999,-2.25681 0,-0.6489 0.405,-2.13154 0.9,-3.29478 0.50098,-1.17728 0.90423,-2.66632 0.909541,-3.35855 0.0052,-0.68398 0.207748,-1.50564 0.45,-1.82593 0.242253,-0.32029 0.440459,-0.92979 0.440459,-1.35444 0,-0.42466 0.27,-1.27587 0.6,-1.89157 0.33,-0.61572 0.6,-1.49916 0.6,-1.96323 0,-0.46406 0.198207,-1.1058 0.440459,-1.42608 0.242253,-0.32029 0.449046,-0.85234 0.459541,-1.18234 0.01049,-0.33 0.217289,-0.86205 0.459541,-1.18234 0.242253,-0.32029 0.445243,-0.92779 0.45109,-1.35 0.0058,-0.42221 0.203563,-1.10516 0.439369,-1.51766 0.235806,-0.4125 0.433523,-1.11922 0.43937,-1.57049 0.0058,-0.45127 0.41563,-1.4787 0.91063,-2.28318 0.495,-0.80448 0.9,-1.65821 0.9,-1.89717 0,-0.23897 0.198207,-0.69654 0.440459,-1.01682 0.242253,-0.32029 0.444753,-0.87002 0.45,-1.22162 0.01211,-0.81131 1.235462,-4.10023 2.607726,-7.01072 2.176863,-4.617 3.487249,-7.34066 4.474351,-9.3 0.939683,-1.86522 1.027464,-2.0844 1.027464,-2.56558 0,-0.26055 0.675,-1.61652 1.5,-3.01327 0.825,-1.39676 1.5,-2.6751 1.5,-2.84076 0,-0.31155 2.403342,-4.65705 3.307539,-5.98039 0.281847,-0.4125 2.035578,-3.315 3.897177,-6.45 1.861599,-3.135 4.019127,-6.4425 4.794504,-7.35 0.775377,-0.9075 1.797027,-2.2575 2.270331,-3 0.473304,-0.742501 1.476381,-2.092501 2.229063,-3 1.438923,-1.734898 2.287755,-2.980165 3.885375,-5.700001 0.533064,-0.9075 1.800987,-2.469105 2.817609,-3.470231 1.016622,-1.001127 2.658402,-2.8789 3.648402,-4.172829 0.99,-1.293933 2.684265,-3.242328 3.76503,-4.329771 1.080768,-1.087443 2.542329,-2.761611 3.247917,-3.720378 0.705585,-0.958764 1.47234,-1.815909 1.703898,-1.904766 0.231558,-0.08886 0.706302,-0.623163 1.054986,-1.187349 0.348687,-0.564183 2.342667,-2.455777 4.431072,-4.20354 2.088402,-1.747764 3.962253,-3.485178 4.164111,-3.860916 0.339282,-0.631545 1.671747,-1.814055 7.437198,-6.600219 1.19256,-0.99 3.501978,-2.923929 5.13204,-4.297623 1.630062,-1.373691 3.503748,-2.758212 4.163748,-3.07671 0.66,-0.318501 1.976679,-1.244361 2.925954,-2.057466 0.949275,-0.813105 2.029275,-1.571658 2.4,-1.685673 0.370725,-0.114015 1.551546,-0.916311 2.624048,-1.782882 1.0725,-0.866571 2.51459,-1.860321 3.20464,-2.20833 0.69006,-0.348009 1.34047,-0.7716 1.44536,-0.941316 0.10489,-0.169716 0.7553,-0.594609 1.44535,-0.944208 0.69006,-0.349599 1.76484,-1.037139 2.38842,-1.527867 0.62357,-0.490728 1.83857,-1.15686 2.7,-1.480296 0.86142,-0.323433 2.03873,-0.963111 2.61623,-1.421511 0.5775,-0.458397 1.5225,-1.076809 2.1,-1.374248 0.5775,-0.297439 1.455,-0.839269 1.95,-1.204067 0.83339,-0.61418 3.16434,-1.704586 6.45,-3.017281 0.7425,-0.296645 1.77974,-0.852368 2.30498,-1.234939 0.52524,-0.382571 1.09441,-0.695584 1.26482,-0.695584 0.66028,0 2.64424,-1.087464 4.00439,-2.194915 1.26208,-1.027605 4.33521,-2.29574 5.58047,-2.302793 0.22256,-0.0013 0.83006,-0.191722 1.35,-0.423248 1.66082,-0.739557 4.22122,-1.973312 4.99534,-2.407056 1.46849,-0.822802 5.85996,-2.576856 6.45,-2.576275 0.33,3.3e-4 0.98668,-0.201077 1.45929,-0.447561 0.47261,-0.246483 1.15171,-0.448151 1.50911,-0.448151 0.3574,0 1.79322,-0.489989 3.19071,-1.088863 1.39749,-0.598875 3.01339,-1.193336 3.59089,-1.321026 0.5775,-0.12769 1.86,-0.46577 2.85,-0.751289 0.99,-0.285519 2.4075,-0.620482 3.15,-0.744362 0.7425,-0.123879 1.755,-0.371514 2.25,-0.550299 0.495,-0.1787853 1.98,-0.6054093 3.3,-0.9480534 1.32,-0.3426444 2.8725,-0.7633335 3.45,-0.9348651 0.5775,-0.1715316 1.80237,-0.417951 2.72192,-0.5475987 0.91956,-0.1296477 1.95694,-0.3882555 2.30528,-0.5746839 0.34835,-0.1864281 0.97314,-0.3389604 1.38844,-0.3389604 0.91864,0 3.81531,-0.7348974 4.6433,-1.178025 0.33089,-0.1770861 1.56436,-0.321975 2.74106,-0.321975 1.17669,0 2.43432,-0.1645974 2.79472,-0.3657718 0.3604,-0.2011745 1.53278,-0.4650903 2.60528,-0.5864795 1.0725,-0.1213893 2.76,-0.3728084 3.75,-0.5587091 0.99,-0.1859007 4.88231,-0.4282349 8.64958,-0.5385204 6.03468,-0.1766633 6.89521,-0.2629789 7.23307,-0.7255192 0.35321,-0.4835468 1.25546,-0.525 11.4268,-0.525 10.09676,0 11.09295,0.044999 11.62258,0.525 0.49984,0.4530119 1.49035,0.5515086 7.22362,0.7183241 3.65439,0.1063283 7.45435,0.3486625 8.44435,0.5385205 0.99,0.189858 2.6775,0.4445148 3.75,0.5659041 1.0725,0.1213892 2.24487,0.385305 2.60528,0.5864795 0.3604,0.2011744 1.33036,0.3657718 2.15547,0.3657718 0.8251,0 1.88023,0.1545759 2.34472,0.3435018 0.82311,0.3347883 2.14586,0.6073578 4.89453,1.0085751 0.7425,0.1083813 2.025,0.4004637 2.85,0.6490716 0.825,0.2486082 1.90697,0.5722998 2.40438,0.7193145 0.4974,0.147015 1.49163,0.3410847 2.20938,0.4312665 0.71776,0.090182 1.52579,0.2731518 1.79562,0.4066002 0.26984,0.1334484 1.30062,0.4127904 2.29062,0.62076 0.99,0.2079699 2.1375,0.5224572 2.55,0.6988608 0.4125,0.176404 1.425,0.424306 2.25,0.550893 1.99277,0.30577 6.37382,1.432472 7.5,1.928823 0.495,0.218165 1.7775,0.761709 2.85,1.207875 1.0725,0.446166 2.3754,0.996441 2.89534,1.222834 0.51993,0.226394 1.22811,0.411624 1.57373,0.411624 0.34562,0 1.65132,0.4725 2.90157,1.05 1.25025,0.5775 2.38572,1.05 2.5233,1.05 0.13758,0 1.13073,0.395104 2.20704,0.878009 2.73525,1.227223 6.94194,2.857006 8.89902,3.447721 0.9075,0.273914 2.12523,0.879108 2.70606,1.344876 1.20558,0.966772 3.37518,2.129394 3.97371,2.129394 0.222,0 0.84156,0.323062 1.37673,0.717915 0.5352,0.394852 2.08017,1.154301 3.43329,1.687663 1.35312,0.533362 2.73021,1.207284 3.06021,1.497605 0.33,0.290321 0.9375,0.630297 1.35,0.755503 0.4125,0.125205 1.16775,0.545722 1.67832,0.93448 0.51057,0.388759 1.06575,0.706834 1.23375,0.706834 0.16797,0 0.83025,0.417198 1.47168,0.927106 0.64143,0.509909 1.57125,1.126073 2.06625,1.369253 0.495,0.243183 1.71,0.899896 2.7,1.459365 0.99,0.55947 2.22246,1.220808 2.73879,1.46964 0.51633,0.248832 1.32633,0.776472 1.8,1.172532 0.47367,0.39606 1.41309,1.00014 2.08758,1.342398 0.67452,0.342258 2.02452,1.287192 3,2.099853 0.97551,0.812661 2.1006,1.580049 2.50023,1.705305 0.39963,0.125253 2.37399,1.614972 4.38744,3.310485 2.01345,1.69551 4.25148,3.364752 4.9734,3.709422 0.72189,0.34467 2.32506,1.512168 3.56256,2.594442 1.2375,1.082275 3.56298,3.059973 5.16777,4.394889 1.60476,1.334917 2.99469,2.669463 3.08868,2.965656 0.094,0.296196 1.88601,1.957488 3.98223,3.691764 3.56928,2.952973 6.68784,6.103704 8.48616,8.573664 0.42615,0.585324 1.50615,1.835544 2.4,2.778265 0.89385,0.942719 2.16516,2.408747 2.82516,3.25784 1.41354,1.818525 3.12459,3.766351 4.8213,5.488512 0.6717,0.681783 1.77267,2.18461 2.44656,3.339609 0.67389,1.155001 1.57554,2.427283 2.0037,2.827293 0.42813,0.400014 0.77844,0.898609 0.77844,1.107991 0,0.209382 0.26886,0.569 0.59745,0.799155 0.68925,0.482769 2.14095,2.342028 3.48726,4.466295 0.51408,0.811146 1.209,1.772814 1.54425,2.137038 0.94479,1.026456 14.22117,23.342599 14.51709,24.401679 0.14439,0.5167 0.5964,1.43145 1.00446,2.03278 0.40809,0.60132 0.83214,1.46107 0.94236,1.91055 0.11022,0.44947 0.5169,1.28731 0.90375,1.86186 0.38685,0.57455 0.70338,1.23027 0.70338,1.45715 0,0.22688 0.49191,1.3768 1.09314,2.55536 0.60123,1.17857 1.27623,2.5141 1.5,2.96785 0.22377,0.45375 0.60186,1.19625 0.84021,1.65 0.76002,1.4469 2.26992,5.60248 2.26827,6.24266 0,0.33971 0.19659,0.87971 0.43884,1.2 0.24225,0.32029 0.44904,0.85234 0.45954,1.18234 0.0105,0.33 0.21729,0.86205 0.45954,1.18234 0.24225,0.32028 0.44046,0.77971 0.44046,1.02095 0,0.24123 0.41097,1.30844 0.91329,2.37157 0.50229,1.06313 0.99801,2.35659 1.10154,2.87435 0.10356,0.51775 0.45012,1.61849 0.77013,2.44608 0.32001,0.82759 0.76194,2.1469 0.98202,2.93179 0.22011,0.78489 0.50478,1.59489 0.63261,1.8 0.12783,0.20511 0.32685,1.04792 0.44226,1.87292 0.27144,1.94045 0.82377,3.99241 1.34484,4.99629 0.22731,0.43795 0.41808,1.11295 0.42393,1.5 0.006,0.38704 0.20358,1.04121 0.43938,1.45371 0.2358,0.4125 0.43353,1.44332 0.43938,2.29071 0.006,0.84739 0.21228,1.92739 0.45876,2.4 0.24651,0.47261 0.44901,1.20474 0.45,1.62695 0,0.42221 0.20007,1.02971 0.44232,1.35 0.25548,0.33779 0.44892,1.27523 0.46062,2.23234 0.0111,0.9075 0.21312,1.9875 0.44892,2.4 0.25209,0.441 0.43704,1.61519 0.44892,2.85 0.0129,1.35451 0.17652,2.30673 0.46062,2.68234 0.29661,0.39213 0.44106,1.32301 0.44232,2.85 0,1.56326 0.15834,2.54723 0.50568,3.16766 0.66489,1.18772 0.97632,4.29736 1.23177,12.3 0.14613,4.57757 0.33219,6.81312 0.6072,7.29549 0.54711,0.9596 0.51813,21.40938 -0.0317,22.36827 -0.23526,0.41032 -0.43698,2.92658 -0.56805,7.08624 -0.24918,7.90747 -0.55659,10.95943 -1.22988,12.2101 -0.36495,0.67791 -0.51687,1.65911 -0.51687,3.33827 0,1.74794 -0.11925,2.47713 -0.45,2.75163 -0.32082,0.26627 -0.45306,0.98723 -0.46062,2.51173 -0.006,1.28511 -0.18171,2.43751 -0.43938,2.88827 -0.2358,0.4125 -0.43353,1.50045 -0.43938,2.41766 -0.006,0.98663 -0.1905,1.90547 -0.45108,2.25 -0.24225,0.32029 -0.44475,0.93816 -0.45,1.37305 -0.005,0.43489 -0.2112,1.17739 -0.45768,1.65 -0.24651,0.47261 -0.45378,1.53429 -0.46065,2.35929 -0.007,0.825 -0.20541,1.8375 -0.44121,2.25 -0.2358,0.4125 -0.43782,1.155 -0.44892,1.65 -0.0111,0.495 -0.21837,1.16205 -0.46062,1.48234 -0.24225,0.32028 -0.44475,0.99528 -0.45,1.5 -0.005,0.50471 -0.20775,1.17971 -0.45,1.5 -0.24225,0.32028 -0.44046,1.03337 -0.44046,1.58463 0,0.55127 -0.2025,1.48695 -0.45,2.0793 -0.2475,0.59235 -0.45,1.30066 -0.45,1.57402 0,0.27336 -0.40134,1.43812 -0.89187,2.58836 -0.49056,1.15024 -0.89556,2.39052 -0.9,2.75617 -0.008,0.63709 -0.31545,1.46635 -1.54641,4.16804 -0.30894,0.67807 -0.56172,1.43182 -0.56172,1.67501 0,0.24318 -0.0869,0.52902 -0.19308,0.63522 -0.3669,0.3669 -1.60416,3.65892 -1.60554,4.27191 0,0.33825 -0.12138,0.74325 -0.26805,0.9 -0.1467,0.15675 -0.57156,1.20117 -0.94419,2.32092 -0.37263,1.11975 -1.0626,2.64321 -1.53333,3.38541 -0.4707,0.74223 -0.85638,1.58106 -0.8571,1.86408 0,0.28302 -0.40512,1.12209 -0.89871,1.86459 -0.49359,0.7425 -0.89802,1.53606 -0.89871,1.76349 0,0.2274 -0.3912,1.1049 -0.86775,1.95 -0.47655,0.84507 -0.96879,1.87401 -1.09383,2.28651 -0.12504,0.4125 -0.53742,1.24134 -0.91638,1.84185 -0.37893,0.60051 -0.79797,1.48368 -0.93117,1.96257 -0.21024,0.756 -5.69769,10.14597 -10.83792,18.54558 -0.90876,1.485 -2.05092,3.41901 -2.53815,4.2978 -0.48723,0.87879 -1.06662,1.66716 -1.28754,1.75194 -0.22092,0.0848 -0.8148,0.85077 -1.3197,1.7022 -0.50493,0.85143 -1.53018,2.29056 -2.27838,3.19806 -0.74817,0.9075 -1.63695,2.08875 -1.97502,2.625 -0.3381,0.53625 -0.72627,0.975 -0.86262,0.975 -0.13635,0 -0.86817,1.02168 -1.62627,2.27037 -0.7581,1.24872 -2.96022,4.02267 -4.89357,6.16437 -1.93338,2.14167 -3.63327,4.12377 -3.77754,4.4046 -0.1443,0.28086 -0.75354,0.99537 -1.3539,1.58778 -0.60036,0.59241 -1.56405,1.7256 -2.14155,2.51823 -0.5775,0.7926 -1.55469,1.92942 -2.17152,2.52624 -0.61683,0.59685 -1.42683,1.51251 -1.8,2.03481 -0.37317,0.5223 -2.39829,2.38056 -4.5003,4.12947 -2.10198,1.74888 -4.12698,3.59751 -4.5,4.10808 -0.9273,1.26924 -10.89351,9.5886 -12.21363,10.19538 -0.58551,0.2691 -2.61705,1.80231 -4.51455,3.4071 -1.8975,1.60479 -4.0575,3.22677 -4.8,3.60444 -0.7425,0.37764 -1.96062,1.22523 -2.70696,1.88349 -0.74631,0.65826 -1.84245,1.44858 -2.43585,1.75623 -2.62347,1.36026 -3.77829,2.04519 -4.78902,2.84034 -0.59499,0.46809 -1.40499,0.99345 -1.8,1.16748 -0.39498,0.174 -1.52817,0.78186 -2.51817,1.35078 -0.99,0.56895 -2.205,1.22943 -2.7,1.46775 -0.495,0.23832 -1.44,0.82368 -2.1,1.30083 -1.47051,1.06311 -3.39855,2.07867 -9.6,5.05674 -2.64,1.2678 -5.18754,2.62965 -5.66121,3.02637 -1.05648,0.88488 -2.71095,1.59912 -3.70413,1.59912 -0.40815,0 -1.1004,0.18906 -1.53837,0.42012 -0.43797,0.23109 -1.67379,0.78054 -2.74629,1.221 -1.0725,0.44049 -2.22,0.91851 -2.55,1.06224 -5.86449,2.55459 -8.53316,3.59664 -9.21096,3.59664 -0.30095,0 -0.7816,0.12843 -1.06811,0.28542 -1.05701,0.57915 -6.37848,2.71458 -6.76473,2.71458 -0.21962,0 -1.06462,0.20727 -1.87776,0.46059 -0.81314,0.25332 -1.88344,0.58674 -2.37844,0.74094 -0.495,0.1542 -1.44,0.36405 -2.1,0.46638 -0.66,0.1023 -1.9425,0.3894 -2.85,0.63801 -0.9075,0.24861 -2.1225,0.55035 -2.7,0.67053 -0.5775,0.12018 -1.34488,0.37713 -1.70528,0.57102 -0.3604,0.19389 -1.13392,0.35253 -1.71893,0.35253 -0.58501,0 -1.57263,0.18315 -2.19472,0.40701 -2.36702,0.85176 -3.30435,1.09299 -4.24709,1.09299 -0.53539,0 -1.25843,0.15252 -1.60678,0.33897 -0.62838,0.3363 -2.45413,0.66468 -6.25201,1.12449 -1.08615,0.13149 -2.16615,0.36087 -2.4,0.5097 -0.23385,0.14883 -1.30269,0.36606 -2.37519,0.48279 -3.63405,0.39546 -5.76071,0.78477 -6.09095,1.11501 -0.21768,0.21765 -2.44439,0.32904 -6.57869,0.32904 -4.87656,0 -6.48626,0.0989 -7.32663,0.45 -1.49439,0.62439 -20.98234,0.62439 -22.60373,0 z m 79.00929,-23.10186 c 0.47261,-0.24648 1.2385,-0.44814 1.70198,-0.44814 1.29117,0 2.41291,-1.17 4.59311,-4.79076 l 1.99562,-3.31419 0,-6.16725 c 0,-4.0857 -0.11682,-6.38553 -0.34613,-6.81399 -0.19037,-0.35571 -0.32389,-1.23456 -0.29671,-1.95303 0.0272,-0.71844 -0.13151,-1.73478 -0.35263,-2.25852 -0.68196,-1.61526 -1.40453,-4.00212 -1.40453,-4.63956 0,-0.33372 -0.42246,-1.5306 -0.93879,-2.65974 -0.51633,-1.12914 -1.04353,-2.52546 -1.17155,-3.10296 -0.2534,-1.14306 -1.53731,-4.68432 -2.24617,-6.19533 -0.24392,-0.51996 -0.44349,-1.28823 -0.44349,-1.7073 0,-0.41907 -0.12462,-0.83898 -0.27692,-0.93312 -0.15231,-0.0941 -0.37197,-0.6039 -0.48815,-1.13283 -0.11617,-0.52896 -0.31939,-1.16865 -0.45158,-1.42158 -0.68432,-1.3092 -1.4426,-3.26271 -1.57588,-4.05984 -0.24557,-1.46874 -0.9764,-3.17364 -2.28032,-5.31957 -0.67494,-1.11078 -1.22715,-2.21049 -1.22715,-2.4438 0,-0.23331 -0.8775,-1.88523 -1.95,-3.67089 -1.0725,-1.78569 -1.95,-3.40272 -1.95,-3.59343 0,-0.41514 -1.38664,-2.98233 -2.15398,-3.98778 -0.30031,-0.39348 -0.54602,-0.95382 -0.54602,-1.24512 0,-0.29133 -0.80949,-1.8594 -1.79886,-3.48456 -0.98938,-1.62516 -1.79938,-3.16083 -1.8,-3.41262 -6e-4,-0.25176 -0.60244,-1.42398 -1.33736,-2.60493 -0.73492,-1.18092 -1.44367,-2.52744 -1.575,-2.99223 -0.13133,-0.46479 -1.11628,-2.3055 -2.18878,-4.0905 -1.0725,-1.78497 -2.085,-3.47523 -2.25,-3.75612 -2.60618,-4.43658 -3.24939,-5.44539 -3.77559,-5.92161 -0.34114,-0.30873 -1.09295,-1.40658 -1.6707,-2.43969 -0.57774,-1.03311 -1.56325,-2.49894 -2.19003,-3.25743 -0.62677,-0.75849 -1.655,-2.3193 -2.28495,-3.46851 -0.62994,-1.14921 -1.57068,-2.58936 -2.09053,-3.20034 -0.51985,-0.61098 -1.30608,-1.65087 -1.74719,-2.31087 -0.44112,-0.66 -1.53666,-2.2125 -2.43456,-3.45 -0.89789,-1.2375 -2.24608,-3.1275 -2.99598,-4.2 -0.74989,-1.0725 -1.96119,-2.76 -2.69178,-3.75 -0.73059,-0.99 -1.70867,-2.38309 -2.17351,-3.09576 -1.39198,-2.13408 -3.81041,-5.03546 -6.86078,-8.23085 -0.66857,-0.70037 -1.60333,-1.80145 -2.07723,-2.44686 -0.47391,-0.64541 -1.49736,-1.86041 -2.27434,-2.7 -0.77698,-0.83959 -2.18582,-2.40403 -3.13076,-3.47653 -0.94494,-1.0725 -2.34447,-2.63865 -3.11007,-3.48033 -0.7656,-0.84168 -1.932,-2.13986 -2.592,-2.88484 -1.8316,-2.06744 -4.35698,-4.89106 -5.78387,-6.46692 -0.70612,-0.77985 -1.85362,-2.06141 -2.55,-2.84791 -0.69637,-0.7865 -1.86446,-2.0015 -2.59575,-2.7 -0.73129,-0.6985 -1.71054,-1.675 -2.1761,-2.17 -0.46556,-0.495 -1.35695,-1.44 -1.98085,-2.1 -0.62391,-0.66 -2.0351,-1.9425 -3.13599,-2.85 -1.10089,-0.9075 -2.16246,-1.94855 -2.35904,-2.31345 -0.19658,-0.3649 -1.38365,-1.53059 -2.63792,-2.59043 -1.25426,-1.05984 -3.53537,-2.98878 -5.06913,-4.28655 -1.53376,-1.29776 -3.38827,-2.70443 -4.12113,-3.12591 -0.73287,-0.42149 -1.95301,-1.23149 -2.71145,-1.8 -1.45544,-1.09099 -4.95719,-3.10287 -7.49078,-4.30372 -0.8316,-0.39416 -1.69188,-0.9334 -1.91173,-1.1983 -0.21985,-0.2649 -0.55195,-0.48214 -0.73799,-0.48276 -0.18605,-6e-4 -0.81077,-0.29879 -1.38827,-0.6626 -1.51552,-0.95473 -5.00758,-2.35277 -6.75,-2.70234 -0.825,-0.16552 -2.95811,-0.36191 -4.74024,-0.43643 -4.24071,-0.17733 -5.31411,0.20981 -7.39093,2.66562 -0.83536,0.98781 -1.51883,2.00804 -1.51883,2.26718 0,0.25915 -0.405,1.1888 -0.9,2.06589 l -0.9,1.59471 0.01,6.52954 c 0.008,5.26578 0.0948,6.64226 0.45,7.11189 0.2659,0.35155 0.44046,1.25025 0.44046,2.26766 0,1.01741 0.17456,1.91611 0.44046,2.26766 0.24225,0.32029 0.44475,0.99529 0.45,1.5 0.005,0.50471 0.20775,1.17971 0.45,1.5 0.24225,0.32029 0.44475,0.78684 0.45,1.03678 0.005,0.24994 0.2537,0.92494 0.55211,1.5 0.29842,0.57506 0.72773,1.65306 0.95404,2.39556 0.22631,0.7425 0.51063,1.485 0.63183,1.65 0.38857,0.52899 1.77156,4.40217 1.77156,4.96141 0,0.29698 0.2025,0.95591 0.45,1.46428 0.2475,0.50837 0.6525,1.34025 0.9,1.84862 0.2475,0.50837 0.45,1.24629 0.45,1.63982 0,0.68538 0.47801,2.0143 1.37951,3.83518 0.23127,0.46712 0.42049,1.16329 0.42049,1.54704 0,0.86341 1.35612,3.90802 2.80775,6.30365 0.59989,0.99 1.09105,1.98375 1.09148,2.20834 3e-4,0.22458 0.68001,1.53285 1.51019,2.90726 0.83018,1.37441 1.66289,2.93916 1.85046,3.47722 0.18757,0.53806 0.92583,1.96743 1.64058,3.17638 0.71475,1.20894 1.29954,2.36749 1.29954,2.57455 0,0.20706 0.43875,1.0788 0.975,1.93716 1.72702,2.76444 3.45308,5.89869 3.67272,6.66909 0.1176,0.4125 0.72307,1.56 1.34548,2.55 0.62242,0.99 3.05243,5.04 5.40002,9 2.3476,3.96 4.57163,7.5375 4.94229,7.95 0.37066,0.4125 1.86039,2.7075 3.3105,5.1 1.4501,2.3925 2.98923,4.79175 3.42027,5.33166 0.43105,0.53994 1.19346,1.48494 1.69425,2.1 0.50079,0.61509 1.2965,1.72584 1.76824,2.46834 0.81156,1.27737 1.68147,2.39088 5.57437,7.13526 0.90923,1.10811 2.04565,2.62224 2.52538,3.36474 0.47974,0.7425 1.89583,2.61519 3.14686,4.16154 1.25104,1.54635 2.47712,3.1107 2.72462,3.47634 0.2475,0.36564 1.13025,1.46295 1.96168,2.43846 0.83142,0.97551 1.70892,2.06352 1.95,2.41782 0.24107,0.35427 1.41651,1.77177 2.61209,3.15 2.36113,2.72184 3.08702,3.59736 4.68919,5.65584 0.57791,0.7425 1.60064,1.9575 2.27273,2.7 0.67209,0.7425 1.794,1.98 2.49314,2.75001 0.69914,0.77001 1.94617,2.16558 2.77117,3.10128 3.46061,3.92493 4.58416,5.13045 6.12813,6.57522 0.89548,0.8379 1.90798,1.85802 2.25,2.26689 0.34203,0.40887 1.43187,1.48887 2.42187,2.4 0.99,0.91113 2.78691,2.658 3.99314,3.88194 3.09033,3.13566 10.47566,9.28749 11.90686,9.91815 0.66,0.29082 1.44601,0.80391 1.74669,1.14021 0.30068,0.33633 0.97568,0.78432 1.5,0.99561 0.52432,0.21126 1.50721,0.83109 2.18421,1.37739 0.67699,0.54633 1.42045,0.9933 1.65212,0.9933 0.23168,0 1.16278,0.61911 2.06911,1.3758 0.90633,0.75669 2.18787,1.64037 2.84787,1.96374 0.66,0.32337 1.6725,0.8409 2.25,1.15005 1.22463,0.65556 5.72222,2.41608 8.1,3.17061 0.9075,0.288 1.77825,0.63975 1.935,0.78171 0.47771,0.4326 4.14153,0.29271 5.07429,-0.19377 z M 56.346993,334.88783 c 1.973097,-0.82143 3.720198,-2.08155 6.457155,-4.65738 0.896742,-0.84396 2.40153,-2.74968 3.702393,-4.68891 0.521184,-0.77694 1.319061,-1.86996 1.773057,-2.42892 0.453999,-0.55896 0.936825,-1.61079 1.072953,-2.33739 0.136125,-0.7266 0.582195,-1.86108 0.991266,-2.52108 0.834753,-1.34682 2.060325,-4.44096 2.060343,-5.2017 6e-6,-0.27405 0.810006,-2.48997 1.8,-4.92423 0.989994,-2.43429 1.804281,-4.72929 1.809528,-5.1 0.0053,-0.37074 0.20775,-0.93612 0.45,-1.25641 0.242253,-0.32029 0.444753,-1.19779 0.45,-1.95 0.0053,-0.75221 0.20775,-1.62971 0.45,-1.95 0.265902,-0.35155 0.44046,-1.25025 0.44046,-2.26766 0,-1.01741 0.174558,-1.91611 0.44046,-2.26766 0.24225,-0.32029 0.449535,-1.12234 0.460629,-1.78234 0.0111,-0.66 0.213105,-1.5375 0.448911,-1.95 0.235806,-0.4125 0.433524,-1.37476 0.439368,-2.13836 0.0059,-0.7636 0.213132,-1.87302 0.460632,-2.46537 0.2475,-0.59235 0.45,-1.73053 0.45,-2.5293 0,-0.81252 0.194034,-1.70883 0.44046,-2.03463 0.255495,-0.3378 0.448929,-1.27523 0.460629,-2.23234 0.0111,-0.9075 0.213105,-1.9875 0.448911,-2.4 0.235806,-0.4125 0.434355,-1.425 0.441219,-2.25 0.0069,-0.825 0.214146,-1.88668 0.460629,-2.35929 0.30972,-0.59386 0.448152,-1.77909 0.448152,-3.83695 0,-2.41992 0.116406,-3.20584 0.621468,-4.19584 0.557982,-1.09374 0.613431,-1.66714 0.542802,-5.61305 -0.05318,-2.97109 0.03705,-4.60716 0.278532,-5.05015 0.51,-0.93559 0.515562,-54.13889 0.0058,-55.08944 -0.231456,-0.43156 -0.327648,-2.09519 -0.281754,-4.87288 0.06089,-3.68556 -0.01011,-4.42001 -0.562746,-5.8221 -0.490752,-1.24504 -0.621321,-2.18201 -0.582834,-4.18239 0.03479,-1.80798 -0.09537,-2.91103 -0.435813,-3.69327 -0.266979,-0.61346 -0.485415,-1.71177 -0.485415,-2.44071 0,-0.72894 -0.201669,-1.71203 -0.448152,-2.18464 -0.246483,-0.47261 -0.448983,-1.54224 -0.45,-2.37695 -0.0012,-0.8673 -0.190599,-1.76721 -0.442308,-2.1 -0.255495,-0.3378 -0.448929,-1.27523 -0.460629,-2.23234 -0.0111,-0.9075 -0.213105,-1.9875 -0.448911,-2.4 -0.235806,-0.4125 -0.438306,-1.4925 -0.45,-2.4 -0.0117,-0.9075 -0.214194,-1.9875 -0.45,-2.4 -0.235806,-0.4125 -0.438306,-1.2225 -0.45,-1.8 -0.0117,-0.5775 -0.214194,-1.3875 -0.45,-1.8 -0.235806,-0.4125 -0.438306,-1.425 -0.45,-2.25 -0.0117,-0.825 -0.214194,-1.8375 -0.45,-2.25 -0.235806,-0.4125 -0.437817,-1.3575 -0.448911,-2.1 -0.0111,-0.7425 -0.218379,-1.61205 -0.460629,-1.93234 -0.242253,-0.32029 -0.441291,-0.92779 -0.442308,-1.35 -9e-4,-0.42221 -0.216711,-1.17266 -0.479322,-1.66766 -0.262611,-0.495 -0.735489,-1.69763 -1.050843,-2.6725 -0.315351,-0.97488 -0.68391,-1.91988 -0.819018,-2.1 -0.334755,-0.44629 -1.158279,-2.80522 -1.404363,-4.02271 -0.110637,-0.54736 -0.390102,-1.35736 -0.621033,-1.8 -0.230931,-0.44263 -0.420708,-1.03307 -0.421725,-1.31208 -9e-4,-0.27902 -0.138777,-0.59193 -0.306135,-0.69536 -0.481404,-0.29752 -1.495713,-2.45677 -1.495713,-3.18404 0,-0.74325 -1.301031,-3.1142 -1.907781,-3.47666 -0.217881,-0.13016 -0.76446,-0.84415 -1.214625,-1.58665 -1.334307,-2.20082 -2.950518,-4.11287 -4.794171,-5.67174 -0.952932,-0.80573 -1.929648,-1.74629 -2.170485,-2.09013 -0.240834,-0.34384 -1.319187,-1.03308 -2.39634,-1.53165 -2.880765,-1.33337 -5.091861,-1.28048 -8.65572,0.20708 -2.528925,1.05557 -2.89083,1.32641 -6.075,4.54621 -1.862232,1.88307 -3.385878,3.61285 -3.385878,3.84395 0,0.53772 -1.046961,2.60235 -2.10255,4.14628 -0.451242,0.66 -1.192761,2.145 -1.647816,3.3 -0.455055,1.155 -1.079883,2.66634 -1.388505,3.35854 -0.308622,0.6922 -0.561129,1.52798 -0.561129,1.8573 0,0.32931 -0.135,0.68218 -0.3,0.78416 -0.165,0.10198 -0.3,0.59579 -0.3,1.09737 0,0.50157 -0.184164,1.33735 -0.409254,1.85729 -0.22509,0.51994 -0.643718,1.55284 -0.930283,2.29534 -0.286566,0.7425 -0.709901,1.79333 -0.940746,2.33518 -0.230844,0.54185 -0.419717,1.28634 -0.419717,1.65444 0,0.3681 -0.27,1.17303 -0.6,1.78873 -0.33,0.61571 -0.604784,1.62621 -0.61063,2.24556 -0.0058,0.61935 -0.203564,1.46359 -0.43937,1.87609 -0.235806,0.4125 -0.438306,1.425 -0.45,2.25 -0.01169,0.825 -0.214194,1.8375 -0.45,2.25 -0.235806,0.4125 -0.433522,1.29795 -0.439369,1.96766 -0.0058,0.66971 -0.208837,1.47971 -0.45109,1.8 -0.255495,0.33779 -0.44893,1.27523 -0.460631,2.23234 -0.01109,0.9075 -0.213104,1.9875 -0.44891,2.4 -0.235806,0.4125 -0.433522,1.44332 -0.439369,2.29071 -0.0058,0.84739 -0.212299,1.92739 -0.458783,2.4 -0.246483,0.47261 -0.448983,1.54224 -0.45,2.37695 -0.001,0.8673 -0.190598,1.76721 -0.442307,2.1 -0.245961,0.32519 -0.445488,1.24471 -0.451848,2.08234 -0.0063,0.825 -0.213058,1.88668 -0.459541,2.35929 -0.309651,0.59373 -0.448152,1.77882 -0.448152,3.83464 0,1.96608 -0.152644,3.34067 -0.45,4.05234 -0.330933,0.79203 -0.452524,2.27783 -0.459541,5.61537 -0.0074,3.5146 -0.1089,4.66972 -0.45,5.1207 -0.358488,0.47396 -0.440459,1.9046 -0.440459,7.68728 0,5.54865 -0.09857,7.38432 -0.45,8.38038 -0.67367,1.90939 -0.662416,21.61834 0.01327,23.23548 0.377435,0.90333 0.455332,2.40303 0.420437,8.09437 -0.03601,5.87273 0.03357,7.13335 0.436732,7.91298 0.37664,0.72834 0.481611,1.91246 0.489104,5.51727 0.0074,3.55993 0.10838,4.72058 0.45,5.17224 0.324045,0.42843 0.442981,1.4592 0.45,3.9 0.007,2.4408 0.125955,3.47157 0.45,3.9 0.265901,0.35155 0.440458,1.25025 0.440458,2.26766 0,1.01741 0.174557,1.91611 0.440459,2.26766 0.255496,0.33779 0.44893,1.27523 0.460631,2.23234 0.01109,0.9075 0.213104,1.9875 0.44891,2.4 0.235806,0.4125 0.433523,1.37476 0.43937,2.13836 0.0058,0.7636 0.21313,1.87301 0.46063,2.46537 0.2475,0.59235 0.450832,1.65509 0.451848,2.36163 0.001,0.70655 0.203517,1.67132 0.45,2.14393 0.246484,0.47261 0.452936,1.35011 0.458783,1.95 0.0058,0.59989 0.203563,1.42821 0.439369,1.84071 0.235806,0.4125 0.433523,1.50045 0.43937,2.41766 0.0063,0.98663 0.190501,1.90547 0.451089,2.25 0.242253,0.32029 0.445257,1.12234 0.451122,1.78234 0.0059,0.66 0.280157,1.64201 0.60954,2.18225 0.329384,0.54025 0.598879,1.31803 0.598879,1.72843 0,0.41037 0.6075,2.2575 1.35,4.10472 0.7425,1.84719 1.35,3.79521 1.35,4.32888 0,0.53367 0.117564,1.04298 0.261252,1.13178 0.143688,0.0888 0.34668,0.603 0.451095,1.1427 0.176559,0.91257 0.583515,1.90929 1.583208,3.87753 0.222444,0.43797 0.404445,0.98589 0.404445,1.21764 0,0.23175 0.488601,1.22343 1.085778,2.20371 1.880922,3.08763 2.514222,4.28388 2.514222,4.74918 0,0.24825 0.70875,1.21665 1.575,2.15202 3.506328,3.78609 4.352313,4.43655 7.664385,5.89305 3.968802,1.74531 5.181357,1.82151 8.30346,0.52179 z m 346.444367,-0.11385 c 1.2102,-0.56661 2.56251,-1.12107 3.00513,-1.23216 0.44259,-0.11109 1.17666,-0.67683 1.63119,-1.25721 0.45456,-0.58035 1.60542,-1.81548 2.5575,-2.7447 2.0127,-1.96443 2.91423,-3.23415 2.91699,-4.10847 0,-0.34248 0.35094,-0.94998 0.77745,-1.35 0.85428,-0.80121 3.71826,-6.43881 3.73515,-7.35249 0.006,-0.31614 0.20358,-0.9123 0.43938,-1.3248 0.2358,-0.4125 0.43353,-1.1337 0.43938,-1.60269 0.006,-0.46896 0.28062,-1.19592 0.61062,-1.61544 0.33,-0.41955 0.6,-0.98175 0.6,-1.24941 0,-0.26763 0.60627,-1.97067 1.34724,-3.78453 0.741,-1.81386 1.3485,-3.51768 1.35,-3.7863 0.003,-0.26859 0.20526,-0.97302 0.45276,-1.56536 0.2475,-0.59235 0.45429,-1.58759 0.45954,-2.21163 0.005,-0.62406 0.20775,-1.39669 0.45,-1.71698 0.261,-0.34508 0.44436,-1.26179 0.45,-2.25 0.006,-0.98821 0.189,-1.90492 0.45,-2.25 0.24225,-0.32029 0.44523,-1.13029 0.45108,-1.8 0.006,-0.66971 0.20358,-1.55516 0.43938,-1.96766 0.2358,-0.4125 0.43434,-1.425 0.44121,-2.25 0.007,-0.825 0.21414,-1.88668 0.46065,-2.35929 0.24648,-0.47261 0.44814,-1.4557 0.44814,-2.18464 0,-0.72894 0.2025,-1.80999 0.45,-2.40234 0.2475,-0.59236 0.45477,-1.70177 0.46062,-2.46537 0.006,-0.7636 0.20358,-1.72586 0.43938,-2.13836 0.2358,-0.4125 0.43782,-1.4925 0.44892,-2.4 0.0117,-0.95711 0.20514,-1.89455 0.46062,-2.23234 0.3225,-0.42639 0.44076,-1.43062 0.44157,-3.75 0,-2.63636 0.10158,-3.33241 0.6,-4.14991 0.53004,-0.86934 0.60012,-1.52459 0.60951,-5.7 0.008,-3.52385 0.11913,-4.90755 0.43938,-5.46775 0.33792,-0.59111 0.43302,-2.30717 0.44892,-8.1 0.0165,-5.97511 0.10254,-7.45893 0.46062,-7.93234 0.36759,-0.48598 0.44046,-2.30067 0.44046,-10.96766 0,-8.66699 -0.0729,-10.48168 -0.44046,-10.96766 -0.35853,-0.47403 -0.44223,-1.93718 -0.45,-7.86698 -0.007,-5.77999 -0.10248,-7.50709 -0.45954,-8.36163 -0.33177,-0.79402 -0.45,-2.25293 -0.45,-5.55232 0,-3.88328 -0.0794,-4.6309 -0.6,-5.65141 -0.4824,-0.94556 -0.60186,-1.78121 -0.60954,-4.26305 -0.007,-2.23781 -0.13071,-3.24714 -0.45,-3.66929 -0.26058,-0.34453 -0.44481,-1.26337 -0.45108,-2.25 -0.006,-0.91721 -0.20358,-2.00516 -0.43938,-2.41766 -0.2358,-0.4125 -0.4383,-1.425 -0.45,-2.25 -0.0117,-0.825 -0.2142,-1.8375 -0.45,-2.25 -0.2358,-0.4125 -0.43782,-1.4925 -0.44892,-2.4 -0.0117,-0.95711 -0.20514,-1.89455 -0.46062,-2.23234 -0.25602,-0.33848 -0.44046,-1.23492 -0.44046,-2.14071 0,-0.8571 -0.20166,-1.94505 -0.44814,-2.41766 -0.24651,-0.47261 -0.4533,-1.39929 -0.45954,-2.05929 -0.006,-0.66 -0.20961,-1.46205 -0.45186,-1.78234 -0.2517,-0.33279 -0.44124,-1.2327 -0.44232,-2.1 0,-0.83471 -0.20349,-1.90434 -0.45,-2.37695 -0.24648,-0.47261 -0.45243,-1.41761 -0.45768,-2.1 -0.005,-0.68239 -0.20775,-1.50276 -0.45,-1.82305 -0.24225,-0.32029 -0.44046,-0.999 -0.44046,-1.50825 0,-0.50925 -0.18444,-1.1922 -0.40989,-1.51766 -0.22545,-0.32546 -0.71757,-1.50716 -1.09362,-2.626 -0.37605,-1.11883 -0.79908,-2.10555 -0.94011,-2.1927 -0.141,-0.0872 -0.25728,-0.52174 -0.25836,-0.96576 0,-0.44401 -0.27018,-1.21229 -0.59802,-1.70729 -0.32784,-0.495 -0.60123,-1.2375 -0.60756,-1.65 -0.006,-0.4125 -0.20973,-1.01205 -0.45198,-1.33234 -0.24225,-0.32029 -0.44046,-0.9977 -0.44046,-1.50536 0,-0.50766 -0.31206,-1.39311 -0.69345,-1.96766 -0.38139,-0.57455 -0.92481,-1.66557 -1.20756,-2.42448 -0.28278,-0.75891 -0.98322,-1.92787 -1.55655,-2.59769 -0.57333,-0.66982 -1.04244,-1.40621 -1.04244,-1.63642 0,-0.77099 -1.69962,-3.07662 -2.93838,-3.98605 -0.67425,-0.495 -1.37973,-1.23379 -1.56774,-1.64175 -0.72495,-1.57308 -3.2622,-3.2765 -6.57246,-4.41249 -3.07659,-1.05581 -7.97691,0.13722 -10.13112,2.46653 -0.52785,0.57074 -1.16772,1.03771 -1.42194,1.03771 -0.25422,0 -0.96579,0.77625 -1.58127,1.725 -1.10763,1.70736 -2.53575,3.55559 -3.65835,4.73448 -0.59658,0.62647 -3.62874,5.72182 -3.62874,6.09783 0,0.1155 -0.40134,1.1511 -0.89187,2.30134 -0.49056,1.15024 -0.89637,2.36135 -0.90186,2.69135 -0.005,0.33 -0.21162,0.98668 -0.45813,1.45929 -0.24648,0.47261 -0.44898,1.14761 -0.45,1.5 0,0.35239 -0.19077,1.00287 -0.42171,1.4455 -0.23094,0.44264 -0.51048,1.21734 -0.62124,1.72156 -0.11073,0.50422 -0.32598,0.99378 -0.47826,1.08791 -0.15231,0.0941 -0.27693,0.40464 -0.27693,0.69001 0,0.28538 -0.27,1.04845 -0.6,1.69573 -0.33,0.64728 -0.60429,1.51957 -0.60954,1.93843 -0.005,0.41886 -0.20775,1.02362 -0.45,1.34391 -0.24225,0.32028 -0.44523,1.13028 -0.45108,1.8 -0.006,0.66971 -0.20358,1.55516 -0.43938,1.96766 -0.2358,0.4125 -0.4383,1.425 -0.45,2.25 -0.0117,0.825 -0.2142,1.8375 -0.45,2.25 -0.2358,0.4125 -0.4383,1.29 -0.45,1.95 -0.0117,0.66 -0.2142,1.5375 -0.45,1.95 -0.2358,0.4125 -0.43782,1.4925 -0.44892,2.4 -0.0117,0.95711 -0.20514,1.89454 -0.46062,2.23234 -0.26589,0.35155 -0.44046,1.25025 -0.44046,2.26766 0,1.01741 -0.17457,1.91611 -0.44046,2.26766 -0.24225,0.32029 -0.44475,1.22792 -0.45,2.01698 -0.005,0.78904 -0.21204,1.91928 -0.45954,2.51163 -0.2475,0.59235 -0.45,1.60485 -0.45,2.25 0,0.64515 -0.2025,1.65765 -0.45,2.25 -0.29181,0.69842 -0.45,2.06934 -0.45,3.9 0,1.83067 -0.15819,3.20159 -0.45,3.9 -0.33093,0.79203 -0.45252,2.27783 -0.45954,5.61537 -0.007,3.5146 -0.1089,4.66972 -0.45,5.1207 -0.65286,0.86316 -0.64365,54.225 0.01,55.36766 0.31968,0.55923 0.43143,1.93726 0.43938,5.41766 0.008,3.62703 0.10881,4.79749 0.45108,5.25 0.31878,0.42147 0.44604,1.4525 0.46062,3.73234 0.0138,2.14832 0.15651,3.3885 0.44892,3.9 0.2358,0.4125 0.43353,1.44332 0.43938,2.29071 0.006,0.84739 0.21228,1.92739 0.45876,2.4 0.24651,0.47261 0.45378,1.53429 0.46065,2.35929 0.007,0.825 0.20541,1.8375 0.44121,2.25 0.2358,0.4125 0.4383,1.425 0.45,2.25 0.0117,0.825 0.2142,1.8375 0.45,2.25 0.2358,0.4125 0.43434,1.425 0.44121,2.25 0.007,0.825 0.21414,1.88668 0.46065,2.35929 0.24648,0.47261 0.45243,1.41761 0.45768,2.1 0.005,0.68239 0.20775,1.50276 0.45,1.82305 0.261,0.34508 0.44436,1.26179 0.45,2.25 0.006,0.98821 0.189,1.90492 0.45,2.25 0.24225,0.32028 0.44523,1.13028 0.45108,1.8 0.006,0.66971 0.20358,1.55516 0.43938,1.96766 0.2358,0.4125 0.43353,1.07271 0.43938,1.46715 0.006,0.39441 0.26589,1.27191 0.57789,1.95 0.312,0.67806 0.79812,1.84035 1.0803,2.58285 0.28215,0.7425 0.70188,1.79334 0.9327,2.33517 0.23085,0.54186 0.41973,1.31013 0.41973,1.7073 0,0.39717 0.1272,0.80073 0.28266,0.89682 0.15546,0.0961 0.37356,0.78072 0.48462,1.52139 0.11109,0.74067 0.32139,1.4205 0.46734,1.51071 0.14595,0.0902 0.26538,0.39429 0.26538,0.67575 0,0.28146 0.27,1.0155 0.6,1.63122 0.33,0.61569 0.6,1.26828 0.6,1.4502 0,0.8757 3.66213,6.46761 5.59866,8.54889 0.35679,0.38343 0.95457,1.2414 1.32843,1.90659 0.37383,0.66519 0.95934,1.29819 1.30113,1.40664 0.34176,0.10848 1.05114,0.66642 1.57641,1.23987 0.56556,0.61746 1.97253,1.50513 3.45018,2.17674 3.39918,1.54497 5.10675,1.57908 8.1324,0.16254 z M 294.4706,216.23904 c 3.16407,-1.52877 3.57231,-1.86269 4.91499,-4.02024 2.37349,-3.81396 2.51823,-4.45605 2.51841,-11.17194 9e-5,-3.61476 -0.11628,-5.97926 -0.29985,-6.09271 -0.165,-0.10198 -0.30083,-0.88619 -0.30185,-1.74271 -9e-4,-0.85651 -0.18452,-1.90735 -0.40778,-2.3352 -0.22326,-0.42785 -0.50451,-1.30535 -0.625,-1.95 -0.12048,-0.64465 -0.32325,-1.30709 -0.45059,-1.47209 -0.12734,-0.165 -0.30845,-0.8012 -0.40247,-1.41377 -0.094,-0.61258 -0.58525,-1.98188 -1.09163,-3.04289 -0.50638,-1.06102 -0.92068,-2.20899 -0.92068,-2.55105 0,-0.34207 -0.18916,-1.06526 -0.42035,-1.60711 -1.83752,-4.30661 -2.27965,-5.51997 -2.27965,-6.25623 0,-0.46395 -0.12462,-0.92055 -0.27692,-1.01469 -0.15231,-0.0941 -0.37197,-0.60391 -0.48815,-1.13285 -0.11617,-0.52894 -0.31939,-1.16865 -0.45158,-1.42156 -0.788,-1.50756 -1.48354,-3.27814 -1.48474,-3.77957 -0.002,-0.86026 -1.20075,-3.62876 -2.47641,-5.71952 -0.61721,-1.01159 -1.1222,-2.05522 -1.1222,-2.31918 0,-0.26396 -0.483,-1.23497 -1.07333,-2.15781 -0.59032,-0.92283 -1.84619,-3.1867 -2.7908,-5.03082 -0.94461,-1.84412 -1.92984,-3.75795 -2.18939,-4.25295 -0.25955,-0.495 -0.91979,-1.7775 -1.46719,-2.85 -0.5474,-1.0725 -1.37418,-2.55018 -1.83728,-3.28373 -0.46311,-0.73356 -0.84201,-1.54705 -0.84201,-1.80777 0,-0.26071 -0.58954,-1.42134 -1.31008,-2.57918 -0.72055,-1.15784 -1.41022,-2.43685 -1.5326,-2.84224 -0.12238,-0.40539 -1.11909,-2.26015 -2.21492,-4.12169 -1.09582,-1.86153 -2.7349,-4.65427 -3.6424,-6.20608 -0.9075,-1.55182 -2.00336,-3.20124 -2.43524,-3.6654 -0.43188,-0.46415 -1.16641,-1.51891 -1.63228,-2.34391 -0.46588,-0.825 -1.41622,-2.2425 -2.11188,-3.15 -0.69565,-0.9075 -1.90787,-2.73 -2.69381,-4.05 -0.78593,-1.32 -2.1226,-3.21 -2.97036,-4.2 -0.84777,-0.99 -1.86209,-2.34 -2.25406,-3 -0.39196,-0.66 -1.33337,-1.942501 -2.09201,-2.850001 -0.75864,-0.907499 -1.78007,-2.16645 -2.26985,-2.797665 -0.48978,-0.631214 -1.33039,-1.711215 -1.86802,-2.4 -0.53763,-0.688785 -1.43271,-1.927335 -1.98906,-2.752334 -0.55636,-0.825 -1.29772,-1.757172 -1.64749,-2.071498 -0.34977,-0.314321 -0.63594,-0.70296 -0.63594,-0.86364 0,-0.160677 -0.47436,-0.848505 -1.05412,-1.528503 -0.57977,-0.679998 -1.35602,-1.589819 -1.725,-2.021825 -0.36899,-0.432006 -1.21088,-1.495038 -1.87088,-2.362297 -0.66,-0.867255 -1.74,-2.146389 -2.4,-2.842515 -0.66,-0.696126 -1.56862,-1.725591 -2.01916,-2.287704 -0.45053,-0.56211 -1.19734,-1.494519 -1.65957,-2.072019 -0.46223,-0.5775 -1.18877,-1.5225 -1.61455,-2.1 -1.0685,-1.449273 -4.41861,-5.202885 -12.55672,-14.069136 -1.4025,-1.527987 -2.71182,-3.083565 -2.90961,-3.456843 -0.19778,-0.373281 -1.11099,-1.24599 -2.02935,-1.939356 -0.91835,-0.693366 -2.02009,-1.790091 -2.44831,-2.437166 -0.42821,-0.647077 -1.25912,-1.543042 -1.84647,-1.991032 -1.98986,-1.517741 -4.11305,-3.475436 -4.86626,-4.486962 -0.96557,-1.296711 -10.66173,-9.376005 -11.86878,-9.889622 -0.50533,-0.215026 -1.54339,-0.905965 -2.3068,-1.535418 -0.76341,-0.629455 -2.44246,-1.675269 -3.73122,-2.324031 -1.28876,-0.648761 -2.5457,-1.344672 -2.7932,-1.546468 -0.2475,-0.201795 -1.55543,-0.929629 -2.90651,-1.617408 -1.35107,-0.687779 -2.61635,-1.443118 -2.81173,-1.678532 -0.19538,-0.235414 -0.52646,-0.428026 -0.73573,-0.428026 -0.48668,0 -2.39281,-0.883406 -3.74603,-1.736117 -0.97503,-0.614398 -1.41131,-0.66172 -6.1103,-0.662761 l -5.06029,-0.0011 -1.08971,1.147995 c -1.7579,1.851934 -2.98242,3.503655 -3.51677,4.743682 -0.27454,0.637078 -0.6845,1.516653 -0.91104,1.954611 -0.61575,1.190393 -0.5914,12.801711 0.0286,13.621374 0.25549,0.337794 0.44893,1.27523 0.46063,2.232338 0.0111,0.907501 0.2131,1.987501 0.44891,2.400001 0.23581,0.412499 0.43352,1.15871 0.43937,1.658246 0.006,0.49954 0.19397,1.17454 0.41807,1.5 0.22408,0.325465 0.50616,1.131754 0.62684,1.791753 0.12068,0.66 0.34112,1.347376 0.48988,1.527498 0.14875,0.180124 0.52677,1.125123 0.84004,2.1 0.31327,0.974878 0.77369,2.177502 1.02317,2.672502 0.93424,1.853644 1.41292,3.195001 1.42217,3.985179 0.005,0.448152 0.20775,1.076875 0.45,1.39716 0.24225,0.320286 0.44046,0.877506 0.44046,1.238265 0,0.360763 0.18881,0.812631 0.41959,1.004154 0.23077,0.191523 0.48277,0.849304 0.56,1.461733 0.0772,0.612432 0.44146,1.85601 0.8094,2.76351 0.36794,0.9075 0.77346,2.1225 0.90115,2.7 0.31469,1.423212 1.26124,3.519624 2.70629,5.993892 0.66196,1.133435 1.20357,2.245263 1.20357,2.470724 0,0.225462 0.67258,1.475059 1.49463,2.776876 0.82204,1.301817 1.65277,2.848793 1.84605,3.437724 0.19329,0.588933 0.69162,1.610784 1.1074,2.270784 0.41579,0.66 1.15119,2.070837 1.63423,3.135195 0.48304,1.064355 1.68749,3.274887 2.67657,4.912287 0.98908,1.637398 1.94508,3.398058 2.12444,3.912568 0.30173,0.86556 4.7695,8.57838 6.97431,12.03995 0.52548,0.825 1.72671,2.85 2.66939,4.5 0.94269,1.65 1.95751,3.2025 2.25517,3.45 0.29765,0.2475 1.66195,2.34 3.03178,4.65 1.36983,2.31 2.79071,4.5375 3.15752,4.95 0.36681,0.4125 1.226,1.62276 1.90932,2.68947 0.68332,1.0667 1.35423,2.0117 1.49092,2.1 0.13668,0.0883 0.74351,0.90303 1.34851,1.81053 0.605,0.9075 1.83636,2.6625 2.73635,3.9 0.89999,1.2375 2.09674,2.93085 2.65944,3.763 0.5627,0.83216 1.23843,1.69172 1.50162,1.91016 0.2632,0.21843 0.87998,1.09878 1.37062,1.95635 0.49065,0.85756 1.83961,2.56299 2.9977,3.78984 1.15809,1.22686 2.10751,2.30966 2.10983,2.40622 0.002,0.0966 0.57795,0.77364 1.2792,1.50462 0.70125,0.73097 1.68,1.86198 2.175,2.51334 0.495,0.65138 1.5075,1.82469 2.25,2.60737 0.7425,0.78268 2.025,2.237 2.85,3.23182 0.825,0.99482 2.94979,3.32943 4.72176,5.18802 1.77197,1.85859 3.79697,4.03248 4.5,4.83086 0.70303,0.79838 2.15574,2.35088 3.22824,3.45 1.0725,1.09912 3.0975,3.23987 4.5,4.75722 1.4025,1.51735 3.18604,3.26556 3.96342,3.88491 0.77738,0.61935 1.56161,1.47038 1.74273,1.89118 0.18112,0.4208 1.18361,1.44009 2.22775,2.26509 1.04415,0.825 2.12546,1.87406 2.40293,2.33125 0.61166,1.00784 3.93061,3.81875 4.50896,3.81875 0.22805,0 1.53728,0.92458 2.90942,2.05462 1.37214,1.13003 2.9673,2.29473 3.5448,2.58821 0.5775,0.29348 1.9275,1.23225 3,2.08615 1.0725,0.8539 2.31751,1.7096 2.7667,1.90157 0.44918,0.19196 1.56818,0.96112 2.48667,1.70923 0.91849,0.74812 1.84902,1.36022 2.06784,1.36022 0.21883,0 0.71983,0.24324 1.11333,0.54054 0.93024,0.7028 6.34747,3.05663 7.06324,3.06902 0.30372,0.005 1.42972,0.3967 2.50222,0.86985 2.67488,1.18009 5.33278,1.2347 7.56645,0.15548 z"
     id="path3366"
     inkscape:connector-curvature="0" />
</svg>
